<svg width="237" height="103" viewBox="0 0 237 103" fill="none" xmlns="http://www.w3.org/2000/svg">
    <g clip-path="url(#clip0_166_1128)">
        <path d="M61.709 69.127C63.7587 74.0057 69.045 74.873 70.016 76.2824H44.8792C45.8502 74.873 49.3024 74.0057 47.2527 69.127L40.7797 53.2983H14.7799L9.17004 69.127C7.44391 74.2225 11.1119 74.873 12.0829 76.2824H0C0.970945 74.873 6.14932 74.2225 7.87545 69.127L31.8254 0.5H33.2279L61.709 69.127ZM15.2115 51.8889H40.2403L26.6471 19.1475L15.2115 51.8889Z" fill="white"/>
        <path d="M102.463 27.6039H108.936C108.288 28.5796 106.238 29.3385 104.836 32.591L86.2801 76.2824H85.4171L66.106 32.591C64.5957 29.3385 60.9277 28.5796 60.2804 27.6039H79.1598C78.4047 28.5796 76.3549 29.3385 77.8653 32.591L91.5664 61.8632L103.973 32.591C105.267 29.3385 103.11 28.5796 102.463 27.6039Z" fill="white"/>
        <path d="M171.07 71.2953C171.07 74.873 174.091 75.3067 174.738 76.2824H155.859C156.506 75.3067 159.419 74.873 159.419 71.2953V60.6706C160.605 58.7191 161.684 56.7676 162.655 54.5993C163.195 53.5152 163.734 52.431 164.273 51.2384C166.323 46.9018 168.481 42.3484 171.07 38.6623V71.2953ZM171.07 34.9761C179.701 23.9177 189.842 24.8935 193.618 32.0489L186.389 36.6024C184.232 31.1816 178.19 27.4955 170.962 36.4939C170.962 36.4939 170.423 37.2528 170.207 37.4697C166.647 42.3484 163.95 48.6365 161.361 53.9488C155.859 65.3325 147.12 77.2582 132.88 77.2582C132.772 77.2582 132.772 77.2582 132.772 77.2582C118.855 77.2582 108.606 65.8745 108.606 51.8889C108.606 38.1202 117.668 26.6281 130.075 26.6281C140.971 26.6281 149.925 36.1687 149.925 49.1786H120.689C120.689 50.1543 120.689 51.0216 120.689 51.8889C120.689 65.1156 124.465 74.873 134.39 74.873C145.286 74.873 154.025 65.5493 159.419 55.5751V36.1687C159.419 32.591 156.506 32.1573 155.859 31.1816L171.07 27.4955V34.9761ZM130.075 27.4955C123.494 27.4955 121.12 37.1444 120.797 48.3112H138.705C138.705 35.5182 137.519 27.4955 130.075 27.4955Z" fill="white"/>
        <path d="M208.195 35.4098C208.735 45.7093 237 45.4924 237 61.5379C237 71.1869 229.125 77.2582 218.121 77.2582C212.187 77.2582 206.038 75.6319 201.938 72.8131V72.9215L199.241 73.7889L198.378 61.5379C200.104 65.8745 205.282 76.2824 218.121 76.2824C224.378 76.2824 229.664 73.2468 229.34 67.3923C228.693 55.5751 199.996 57.4181 199.241 40.6137C198.809 30.9648 209.166 26.6281 217.257 26.6281C222.328 26.6281 227.075 28.3628 229.772 30.0974L231.606 29.2301L232.469 39.7464C230.743 34.5425 226.212 27.6039 217.257 27.6039C212.726 27.6039 207.872 29.5554 208.195 35.4098Z" fill="white"/>
        <path d="M40.7499 99.6253C40.2036 99.6253 39.6842 99.5616 39.1916 99.4342C38.7038 99.3018 38.2527 99.118 37.8381 98.8828C37.4235 98.6426 37.0504 98.3559 36.7188 98.0226C36.3871 97.6893 36.1042 97.3168 35.8701 96.9051C35.636 96.4884 35.4555 96.04 35.3287 95.5596C35.2068 95.0744 35.1458 94.5671 35.1458 94.0377C35.1458 93.2437 35.2824 92.5061 35.5555 91.8248C35.8335 91.1435 36.2188 90.5528 36.7114 90.0529C37.2089 89.553 37.8015 89.1608 38.4892 88.8766C39.1769 88.5923 39.9305 88.4501 40.7499 88.4501C41.2717 88.4501 41.7668 88.509 42.235 88.6266C42.7032 88.7442 43.1349 88.9133 43.5299 89.1339C43.9299 89.3544 44.2908 89.624 44.6127 89.9426C44.9346 90.2563 45.2102 90.6117 45.4394 91.0087L44.7005 91.391C44.5103 91.0577 44.281 90.7562 44.0128 90.4867C43.7445 90.2171 43.4421 89.9892 43.1056 89.8029C42.7739 89.6118 42.4081 89.4672 42.0082 89.3692C41.6131 89.2662 41.1937 89.2148 40.7499 89.2148C40.2865 89.2148 39.8476 89.2711 39.433 89.3839C39.0233 89.4917 38.6429 89.6485 38.2917 89.8544C37.9454 90.0603 37.6333 90.3078 37.3552 90.597C37.0772 90.8861 36.8407 91.2096 36.6456 91.5674C36.4505 91.9252 36.3018 92.3124 36.1993 92.7291C36.0969 93.1408 36.0457 93.577 36.0457 94.0377C36.0457 94.4936 36.0969 94.9298 36.1993 95.3464C36.3018 95.763 36.4505 96.1502 36.6456 96.508C36.8407 96.8658 37.0772 97.1893 37.3552 97.4785C37.6333 97.7677 37.9454 98.0152 38.2917 98.2211C38.6429 98.4269 39.0233 98.5862 39.433 98.699C39.8476 98.8068 40.2865 98.8607 40.7499 98.8607C41.1937 98.8607 41.6131 98.8117 42.0082 98.7137C42.4081 98.6107 42.7739 98.4661 43.1056 98.2799C43.4421 98.0887 43.7445 97.8584 44.0128 97.5888C44.281 97.3192 44.5103 97.0178 44.7005 96.6845L45.4394 97.0668C45.2102 97.4638 44.9346 97.8216 44.6127 98.1402C44.2908 98.4539 43.9299 98.721 43.5299 98.9416C43.1349 99.1621 42.7032 99.3312 42.235 99.4489C41.7668 99.5665 41.2717 99.6253 40.7499 99.6253Z" fill="white"/>
        <path d="M50.5061 99.6253C50.1159 99.6253 49.7452 99.5788 49.394 99.4856C49.0429 99.3925 48.7161 99.2626 48.4137 99.096C48.1162 98.9244 47.8479 98.721 47.6089 98.4857C47.3699 98.2456 47.1651 97.976 46.9944 97.677C46.8286 97.378 46.6993 97.057 46.6066 96.7139C46.5188 96.3708 46.475 96.0081 46.475 95.6258C46.475 95.2435 46.5188 94.8808 46.6066 94.5377C46.6993 94.1897 46.8286 93.8686 46.9944 93.5745C47.1651 93.2756 47.3699 93.006 47.6089 92.7658C47.8479 92.5257 48.1162 92.3222 48.4137 92.1556C48.7161 91.984 49.0429 91.8542 49.394 91.7659C49.7452 91.6728 50.1159 91.6263 50.5061 91.6263C50.8962 91.6263 51.2669 91.6728 51.6181 91.7659C51.9692 91.8542 52.2936 91.984 52.5911 92.1556C52.8935 92.3222 53.1642 92.5257 53.4032 92.7658C53.647 93.006 53.8519 93.2756 54.0177 93.5745C54.1835 93.8686 54.3128 94.1897 54.4055 94.5377C54.4981 94.8808 54.5445 95.2435 54.5445 95.6258C54.5445 96.0081 54.4981 96.3708 54.4055 96.7139C54.3128 97.057 54.1835 97.378 54.0177 97.677C53.8519 97.976 53.647 98.2456 53.4032 98.4857C53.1642 98.721 52.8935 98.9244 52.5911 99.096C52.2936 99.2626 51.9692 99.3925 51.6181 99.4856C51.2718 99.5788 50.9011 99.6253 50.5061 99.6253ZM50.5061 98.8975C50.8182 98.8975 51.1133 98.8607 51.3913 98.7872C51.6693 98.7088 51.9254 98.6009 52.1595 98.4637C52.3984 98.3265 52.6106 98.1598 52.796 97.9637C52.9862 97.7628 53.1447 97.5422 53.2715 97.3021C53.4032 97.0619 53.5032 96.7997 53.5714 96.5154C53.6446 96.2311 53.6812 95.9346 53.6812 95.6258C53.6812 95.3121 53.6446 95.0156 53.5714 94.7362C53.5032 94.4519 53.4032 94.1872 53.2715 93.9422C53.1447 93.6971 52.9862 93.4765 52.796 93.2805C52.6106 93.0844 52.3984 92.9178 52.1595 92.7805C51.9254 92.6433 51.6693 92.5379 51.3913 92.4644C51.1133 92.3909 50.8182 92.3541 50.5061 92.3541C50.1939 92.3541 49.8988 92.3909 49.6208 92.4644C49.3428 92.5379 49.0843 92.6457 48.8453 92.7879C48.6112 92.9251 48.3991 93.0918 48.2088 93.2878C48.0235 93.479 47.865 93.6971 47.7333 93.9422C47.6065 94.1872 47.5065 94.4519 47.4333 94.7362C47.3651 95.0156 47.3309 95.3121 47.3309 95.6258C47.3309 95.9346 47.3651 96.2311 47.4333 96.5154C47.5065 96.7997 47.6065 97.0619 47.7333 97.3021C47.865 97.5422 48.0235 97.7628 48.2088 97.9637C48.3991 98.1598 48.6112 98.3265 48.8453 98.4637C49.0843 98.6009 49.3428 98.7088 49.6208 98.7872C49.8988 98.8607 50.1939 98.8975 50.5061 98.8975Z" fill="white"/>
        <path d="M56.3996 99.4415V91.7806H57.219V93.0967C57.3458 92.8565 57.497 92.6457 57.6726 92.4644C57.8482 92.283 58.0457 92.1311 58.2652 92.0086C58.4896 91.8811 58.7408 91.7855 59.0188 91.7218C59.3016 91.6581 59.6089 91.6263 59.9406 91.6263C60.3844 91.6263 60.7917 91.6998 61.1623 91.8468C61.5379 91.989 61.8598 92.2022 62.1281 92.4864C62.3963 92.7658 62.6036 93.1138 62.7499 93.5304C62.9011 93.9471 62.9767 94.4249 62.9767 94.9641V99.4415H62.1646V95.1332C62.1646 94.6872 62.1061 94.2926 61.989 93.9495C61.872 93.6015 61.7062 93.3099 61.4916 93.0746C61.277 92.8393 61.016 92.6604 60.7088 92.5379C60.4064 92.4105 60.0674 92.3467 59.6918 92.3467C59.3163 92.3467 58.9749 92.4105 58.6676 92.5379C58.3652 92.6604 58.1067 92.8393 57.8921 93.0746C57.6775 93.3099 57.5117 93.6015 57.3946 93.9495C57.2776 94.2926 57.219 94.6872 57.219 95.1332V99.4415H56.3996Z" fill="white"/>
        <path d="M67.6261 99.618C67.275 99.618 66.9433 99.5739 66.6311 99.4856C66.319 99.3974 66.0337 99.27 65.7752 99.1033C65.5167 98.9367 65.2874 98.7308 65.0875 98.4857C64.8924 98.2407 64.7363 97.9613 64.6193 97.6476L65.2923 97.2947C65.3947 97.5692 65.5216 97.8094 65.6728 98.0152C65.824 98.2211 65.9971 98.3926 66.1922 98.5299C66.3922 98.6671 66.6116 98.7725 66.8506 98.846C67.0896 98.9146 67.3481 98.9489 67.6261 98.9489C67.8846 98.9489 68.1285 98.9195 68.3577 98.8607C68.5918 98.797 68.7942 98.7063 68.9649 98.5887C69.1405 98.4661 69.2795 98.3167 69.382 98.1402C69.4844 97.9638 69.5356 97.7628 69.5356 97.5373C69.5356 97.3021 69.4917 97.1011 69.4039 96.9345C69.3161 96.7678 69.1942 96.6257 69.0381 96.508C68.882 96.3855 68.6918 96.2801 68.4675 96.1919C68.248 96.1037 68.0017 96.0203 67.7285 95.9419L66.8726 95.6993C66.5994 95.6258 66.341 95.5327 66.0971 95.4199C65.8581 95.3072 65.6484 95.17 65.4679 95.0082C65.2875 94.8416 65.1436 94.6455 65.0363 94.42C64.929 94.1897 64.8753 93.9201 64.8753 93.6113C64.8753 93.4054 64.907 93.2143 64.9704 93.0378C65.0338 92.8565 65.1216 92.6948 65.2338 92.5526C65.346 92.4056 65.4801 92.2757 65.6362 92.1629C65.7922 92.0453 65.9654 91.9473 66.1556 91.8689C66.3458 91.7904 66.5507 91.7316 66.7701 91.6924C66.9896 91.6483 67.2189 91.6263 67.4579 91.6263C67.7505 91.6263 68.0285 91.6581 68.2919 91.7218C68.5601 91.7855 68.8089 91.8836 69.0381 92.0159C69.2673 92.1433 69.4722 92.3026 69.6526 92.4938C69.8331 92.68 69.9819 92.8957 70.0989 93.1408L69.4332 93.5084C69.3698 93.3613 69.2942 93.2315 69.2064 93.1187C69.1235 93.0011 69.0308 92.8982 68.9284 92.8099C68.8308 92.7217 68.726 92.6457 68.6138 92.582C68.5016 92.5134 68.3821 92.4595 68.2553 92.4203C68.1334 92.3762 68.0041 92.3443 67.8675 92.3247C67.731 92.3051 67.592 92.2953 67.4505 92.2953C67.2213 92.2953 66.9994 92.3247 66.7848 92.3835C66.5751 92.4374 66.3873 92.5208 66.2215 92.6335C66.0605 92.7413 65.9313 92.8786 65.8337 93.0452C65.7362 93.2069 65.6874 93.3907 65.6874 93.5966C65.6874 93.7976 65.724 93.9716 65.7971 94.1186C65.8752 94.2656 65.98 94.3955 66.1117 94.5083C66.2434 94.6161 66.3995 94.7092 66.5799 94.7876C66.7653 94.8661 66.9652 94.9371 67.1798 95.0009L68.0504 95.2508C68.3821 95.344 68.6869 95.4493 68.9649 95.567C69.2478 95.6797 69.4917 95.8218 69.6965 95.9934C69.9014 96.1649 70.0623 96.3733 70.1794 96.6183C70.2964 96.8585 70.355 97.155 70.355 97.5079C70.355 97.8412 70.2818 98.1402 70.1355 98.4049C69.9892 98.6646 69.7916 98.8852 69.5429 99.0666C69.2942 99.2479 69.004 99.3852 68.6723 99.4783C68.3455 99.5714 67.9968 99.618 67.6261 99.618Z" fill="white"/>
        <path d="M75.0725 99.6253C74.6287 99.6253 74.219 99.5542 73.8434 99.4121C73.4679 99.2651 73.146 99.0519 72.8777 98.7725C72.6095 98.4882 72.3997 98.1378 72.2486 97.7211C72.1022 97.3045 72.0291 96.8266 72.0291 96.2875V91.7806H72.8485V96.1184C72.8485 96.5644 72.907 96.9614 73.024 97.3094C73.1411 97.6525 73.3069 97.9417 73.5215 98.177C73.7361 98.4122 73.9946 98.5936 74.297 98.721C74.6043 98.8436 74.9457 98.9048 75.3213 98.9048C75.6968 98.9048 76.0358 98.8436 76.3382 98.721C76.6455 98.5936 76.9064 98.4122 77.121 98.177C77.3356 97.9417 77.5014 97.6525 77.6185 97.3094C77.7355 96.9614 77.7941 96.5644 77.7941 96.1184V91.7806H78.6061V99.4415H77.7941V98.1549C77.6624 98.3951 77.5087 98.6058 77.3332 98.7872C77.1625 98.9685 76.9649 99.1229 76.7406 99.2504C76.5162 99.3729 76.265 99.466 75.987 99.5297C75.7139 99.5935 75.4091 99.6253 75.0725 99.6253Z" fill="white"/>
        <path d="M81.1196 99.4415V87.8987H81.939V99.4415H81.1196Z" fill="white"/>
        <path d="M87.3973 99.5371C87.0852 99.5371 86.7901 99.5028 86.5121 99.4342C86.239 99.3655 86.0024 99.243 85.8024 99.0666C85.6025 98.8901 85.4439 98.6524 85.3269 98.3534C85.2098 98.0544 85.1513 97.6721 85.1513 97.2065V92.5011H83.2931V91.7806H85.1513V89.2148H85.9634V91.7806H88.7215V92.5011H85.9634V97.133C85.9634 97.4761 86.0048 97.7579 86.0877 97.9785C86.1707 98.1941 86.2828 98.3657 86.4243 98.4931C86.5657 98.6156 86.7316 98.7014 86.9218 98.7504C87.1169 98.7945 87.3266 98.8166 87.5509 98.8166C87.6534 98.8166 87.7509 98.8166 87.8436 98.8166C87.9363 98.8117 88.0265 98.8043 88.1143 98.7945C88.2021 98.7798 88.2874 98.7651 88.3703 98.7504C88.4581 98.7357 88.5435 98.721 88.6264 98.7063V99.4121C88.5191 99.4317 88.4142 99.4489 88.3118 99.4636C88.2094 99.4832 88.107 99.4979 88.0045 99.5077C87.9021 99.5175 87.7997 99.5248 87.6973 99.5297C87.5997 99.5347 87.4997 99.5371 87.3973 99.5371Z" fill="white"/>
        <path d="M90.66 89.3324C90.5771 89.3324 90.4991 89.3201 90.4259 89.2956C90.3527 89.2662 90.2893 89.227 90.2357 89.178C90.1869 89.1241 90.1454 89.0628 90.1113 88.9942C90.082 88.9207 90.0674 88.8398 90.0674 88.7516C90.0674 88.6634 90.082 88.5825 90.1113 88.509C90.1454 88.4354 90.1869 88.3742 90.2357 88.3252C90.2893 88.2761 90.3527 88.2369 90.4259 88.2075C90.4991 88.1781 90.5771 88.1634 90.66 88.1634C90.7478 88.1634 90.8258 88.1781 90.8941 88.2075C90.9673 88.2369 91.0307 88.2761 91.0843 88.3252C91.138 88.3742 91.1794 88.4354 91.2087 88.509C91.238 88.5825 91.2526 88.6634 91.2526 88.7516C91.2526 88.8398 91.238 88.9207 91.2087 88.9942C91.1794 89.0628 91.138 89.1241 91.0843 89.178C91.0307 89.227 90.9673 89.2662 90.8941 89.2956C90.8258 89.3201 90.7478 89.3324 90.66 89.3324ZM90.2503 99.4415V91.7806H91.0697V99.4415H90.2503Z" fill="white"/>
        <path d="M93.5797 99.4415V91.7806H94.399V93.0967C94.5258 92.8565 94.6771 92.6457 94.8526 92.4644C95.0282 92.283 95.2257 92.1311 95.4452 92.0086C95.6696 91.8811 95.9208 91.7855 96.1988 91.7218C96.4817 91.6581 96.7889 91.6263 97.1206 91.6263C97.5644 91.6263 97.9717 91.6998 98.3423 91.8468C98.7179 91.989 99.0398 92.2022 99.3081 92.4864C99.5763 92.7658 99.7836 93.1138 99.9299 93.5304C100.081 93.9471 100.157 94.4249 100.157 94.9641V99.4415H99.3446V95.1332C99.3446 94.6872 99.2861 94.2926 99.1691 93.9495C99.052 93.6015 98.8862 93.3099 98.6716 93.0746C98.457 92.8393 98.196 92.6604 97.8888 92.5379C97.5864 92.4105 97.2474 92.3467 96.8718 92.3467C96.4963 92.3467 96.1549 92.4105 95.8476 92.5379C95.5452 92.6604 95.2867 92.8393 95.0721 93.0746C94.8575 93.3099 94.6917 93.6015 94.5746 93.9495C94.4576 94.2926 94.399 94.6872 94.399 95.1332V99.4415H93.5797Z" fill="white"/>
        <path d="M105.794 99.3974C105.448 99.3974 105.111 99.3558 104.784 99.2724C104.457 99.1891 104.15 99.0715 103.862 98.9195C103.579 98.7627 103.319 98.5715 103.08 98.3461C102.845 98.1206 102.643 97.8633 102.472 97.5741C102.306 97.2849 102.175 96.9688 102.077 96.6257C101.985 96.2777 101.938 95.9076 101.938 95.5155C101.938 95.1185 101.985 94.7484 102.077 94.4053C102.175 94.0622 102.306 93.7461 102.472 93.4569C102.643 93.1677 102.845 92.9104 103.08 92.6849C103.319 92.4595 103.579 92.2683 103.862 92.1115C104.15 91.9546 104.457 91.8346 104.784 91.7512C105.111 91.6679 105.448 91.6263 105.794 91.6263C106.043 91.6263 106.282 91.6483 106.511 91.6924C106.74 91.7316 106.957 91.788 107.162 91.8615C107.367 91.935 107.559 92.0257 107.74 92.1335C107.925 92.2414 108.093 92.3615 108.245 92.4938C108.396 92.6212 108.53 92.7634 108.647 92.9202C108.769 93.0771 108.874 93.2412 108.962 93.4128V91.7806H109.774V98.7872C109.774 99.1989 109.73 99.5763 109.642 99.9194C109.559 100.267 109.437 100.579 109.276 100.853C109.12 101.128 108.927 101.368 108.698 101.574C108.474 101.779 108.22 101.951 107.937 102.088C107.654 102.226 107.347 102.328 107.016 102.397C106.684 102.466 106.335 102.5 105.969 102.5C105.54 102.5 105.14 102.458 104.77 102.375C104.404 102.292 104.062 102.172 103.745 102.015C103.433 101.863 103.148 101.674 102.889 101.449C102.636 101.228 102.409 100.978 102.209 100.699L102.802 100.169C102.987 100.419 103.187 100.642 103.401 100.838C103.621 101.039 103.857 101.208 104.111 101.346C104.37 101.483 104.648 101.588 104.945 101.662C105.248 101.735 105.579 101.772 105.94 101.772C106.213 101.772 106.477 101.748 106.73 101.699C106.989 101.65 107.228 101.571 107.447 101.463C107.672 101.36 107.876 101.231 108.062 101.074C108.247 100.917 108.406 100.728 108.537 100.508C108.674 100.292 108.779 100.044 108.852 99.765C108.925 99.4905 108.962 99.1817 108.962 98.8386V97.6182C108.83 97.8731 108.662 98.1108 108.457 98.3314C108.252 98.547 108.013 98.7333 107.74 98.8901C107.472 99.047 107.172 99.1719 106.84 99.2651C106.513 99.3533 106.164 99.3974 105.794 99.3974ZM105.911 98.6843C106.179 98.6843 106.442 98.6524 106.701 98.5887C106.959 98.525 107.203 98.4318 107.433 98.3093C107.662 98.1868 107.874 98.0348 108.069 97.8535C108.264 97.6721 108.432 97.4638 108.574 97.2285C108.715 96.9933 108.825 96.7335 108.903 96.4492C108.981 96.16 109.02 95.8488 109.02 95.5155C109.02 95.1773 108.981 94.8661 108.903 94.5818C108.825 94.2926 108.715 94.0304 108.574 93.7951C108.432 93.5599 108.264 93.3515 108.069 93.1702C107.874 92.9888 107.662 92.8369 107.433 92.7144C107.203 92.5918 106.959 92.4987 106.701 92.435C106.442 92.3713 106.179 92.3394 105.911 92.3394C105.643 92.3394 105.379 92.3713 105.121 92.435C104.862 92.4987 104.618 92.5918 104.389 92.7144C104.16 92.8369 103.948 92.9888 103.753 93.1702C103.558 93.3515 103.389 93.5599 103.248 93.7951C103.111 94.0304 103.004 94.2926 102.926 94.5818C102.848 94.8661 102.809 95.1773 102.809 95.5155C102.809 95.8488 102.848 96.16 102.926 96.4492C103.004 96.7335 103.111 96.9933 103.248 97.2285C103.389 97.4638 103.558 97.6721 103.753 97.8535C103.948 98.0348 104.16 98.1868 104.389 98.3093C104.618 98.4318 104.862 98.525 105.121 98.5887C105.379 98.6524 105.643 98.6843 105.911 98.6843Z" fill="white"/>
        <path d="M124.06 99.4415L122.495 97.7873C122.368 97.9343 122.239 98.0716 122.107 98.199C121.8 98.5078 121.473 98.7676 121.127 98.9783C120.785 99.1891 120.419 99.3484 120.029 99.4562C119.644 99.569 119.22 99.6253 118.756 99.6253C118.259 99.6253 117.8 99.5567 117.381 99.4195C116.966 99.2773 116.61 99.0788 116.313 98.824C116.02 98.5642 115.791 98.2529 115.625 97.8902C115.459 97.5275 115.376 97.1256 115.376 96.6845C115.376 96.3022 115.442 95.9493 115.574 95.6258C115.705 95.3023 115.898 95.0009 116.152 94.7215C116.405 94.4421 116.72 94.1848 117.095 93.9495C117.447 93.729 117.844 93.5231 118.288 93.3319C118.205 93.2437 118.125 93.1555 118.047 93.0673C117.808 92.7977 117.605 92.5355 117.439 92.2806C117.278 92.0208 117.154 91.761 117.066 91.5013C116.978 91.2366 116.935 90.9597 116.935 90.6705C116.935 90.347 116.993 90.0504 117.11 89.7809C117.232 89.5064 117.4 89.2711 117.615 89.0751C117.834 88.879 118.095 88.7271 118.398 88.6192C118.7 88.5065 119.037 88.4501 119.407 88.4501C119.778 88.4501 120.117 88.5041 120.424 88.6119C120.732 88.7148 120.992 88.8643 121.207 89.0604C121.427 89.2515 121.597 89.4819 121.719 89.7515C121.841 90.0161 121.902 90.3127 121.902 90.6411C121.902 90.9597 121.851 91.2562 121.748 91.5307C121.651 91.8051 121.5 92.0625 121.295 92.3026C121.09 92.5379 120.832 92.7609 120.519 92.9717C120.232 93.1677 119.9 93.3515 119.524 93.5231C119.544 93.5476 119.566 93.5721 119.59 93.5966L122.487 96.6551C122.619 96.4835 122.751 96.2973 122.882 96.0963C123.024 95.8905 123.16 95.6773 123.292 95.4567C123.429 95.2312 123.56 95.0082 123.687 94.7876C123.814 94.5622 123.929 94.3441 124.031 94.1333H124.887C124.77 94.3882 124.638 94.6431 124.492 94.8979C124.346 95.1528 124.192 95.4077 124.031 95.6626C123.875 95.9174 123.712 96.1674 123.541 96.4125C123.375 96.6575 123.207 96.8928 123.036 97.1183C123.021 97.1379 123.007 97.1575 122.992 97.1771L125.136 99.4415H124.06ZM122.004 97.2727L118.851 93.9495C118.822 93.9201 118.793 93.8882 118.764 93.8539C118.393 94.001 118.061 94.1603 117.769 94.3318C117.437 94.5279 117.159 94.7435 116.935 94.9788C116.71 95.2141 116.539 95.4714 116.422 95.7508C116.305 96.0302 116.247 96.3365 116.247 96.6698C116.247 97.0031 116.31 97.3094 116.437 97.5888C116.569 97.8633 116.749 98.101 116.978 98.3019C117.208 98.498 117.478 98.6524 117.79 98.7651C118.108 98.873 118.454 98.9269 118.829 98.9269C119.21 98.9269 119.563 98.8779 119.89 98.7798C120.217 98.6769 120.527 98.5299 120.819 98.3387C121.117 98.1476 121.4 97.9123 121.668 97.6329C121.78 97.5202 121.892 97.4001 122.004 97.2727ZM119.042 93.0158C119.373 92.8736 119.661 92.7242 119.905 92.5673C120.178 92.3909 120.4 92.2046 120.571 92.0086C120.746 91.8125 120.873 91.6042 120.951 91.3836C121.034 91.1582 121.075 90.918 121.075 90.6631C121.075 90.4328 121.031 90.2244 120.944 90.0382C120.861 89.8519 120.744 89.6926 120.593 89.5603C120.446 89.428 120.271 89.325 120.066 89.2515C119.861 89.178 119.641 89.1412 119.407 89.1412C119.183 89.1412 118.971 89.1756 118.771 89.2442C118.571 89.3128 118.398 89.4133 118.251 89.5456C118.105 89.6779 117.988 89.8397 117.9 90.0308C117.812 90.222 117.769 90.4401 117.769 90.6852C117.769 90.9253 117.808 91.1533 117.886 91.3689C117.964 91.5846 118.078 91.8076 118.229 92.038C118.386 92.2634 118.578 92.5011 118.807 92.7511C118.881 92.8344 118.959 92.9227 119.042 93.0158Z" fill="white"/>
        <path d="M128.361 99.4415L133.043 88.5825H133.921L138.603 99.4415H137.711L136.255 96.0522H130.702L129.253 99.4415H128.361ZM131.017 95.3023H135.94L133.475 89.5603L131.017 95.3023Z" fill="white"/>
        <path d="M143.141 99.6253C142.756 99.6253 142.387 99.5788 142.036 99.4856C141.69 99.3925 141.368 99.2626 141.071 99.096C140.773 98.9244 140.505 98.7186 140.266 98.4784C140.027 98.2382 139.824 97.9711 139.659 97.677C139.493 97.378 139.364 97.057 139.271 96.7139C139.183 96.3659 139.139 96.0032 139.139 95.6258C139.139 95.2435 139.183 94.8808 139.271 94.5377C139.364 94.1946 139.493 93.8735 139.659 93.5745C139.824 93.2756 140.027 93.0084 140.266 92.7732C140.505 92.533 140.773 92.3271 141.071 92.1556C141.368 91.984 141.69 91.8542 142.036 91.7659C142.387 91.6728 142.756 91.6263 143.141 91.6263C143.531 91.6263 143.902 91.6704 144.253 91.7586C144.604 91.8468 144.929 91.9791 145.226 92.1556C145.528 92.3271 145.802 92.5428 146.045 92.8026C146.289 93.0623 146.499 93.3662 146.675 93.7142L145.936 94.0451C145.799 93.7657 145.636 93.5231 145.446 93.3172C145.26 93.1065 145.048 92.93 144.809 92.7879C144.575 92.6408 144.316 92.533 144.034 92.4644C143.756 92.3909 143.458 92.3541 143.141 92.3541C142.834 92.3541 142.544 92.3909 142.27 92.4644C141.997 92.5379 141.744 92.6457 141.51 92.7879C141.275 92.9251 141.066 93.0918 140.88 93.2878C140.695 93.479 140.537 93.6971 140.405 93.9422C140.273 94.1872 140.171 94.4519 140.098 94.7362C140.029 95.0156 139.995 95.3121 139.995 95.6258C139.995 95.9346 140.029 96.2311 140.098 96.5154C140.171 96.7997 140.273 97.0619 140.405 97.3021C140.537 97.5422 140.695 97.7628 140.88 97.9637C141.066 98.1598 141.275 98.3265 141.51 98.4637C141.744 98.6009 141.997 98.7088 142.27 98.7872C142.544 98.8607 142.834 98.8975 143.141 98.8975C143.458 98.8975 143.756 98.8607 144.034 98.7872C144.316 98.7137 144.575 98.6058 144.809 98.4637C145.048 98.3216 145.26 98.1451 145.446 97.9343C145.636 97.7236 145.799 97.481 145.936 97.2065L146.675 97.53C146.499 97.878 146.289 98.1843 146.045 98.449C145.802 98.7088 145.528 98.9269 145.226 99.1033C144.929 99.2749 144.604 99.4048 144.253 99.493C143.902 99.5812 143.531 99.6253 143.141 99.6253Z" fill="white"/>
        <path d="M151.757 99.6253C151.372 99.6253 151.004 99.5788 150.653 99.4856C150.306 99.3925 149.984 99.2626 149.687 99.096C149.389 98.9244 149.121 98.7186 148.882 98.4784C148.643 98.2382 148.441 97.9711 148.275 97.677C148.109 97.378 147.98 97.057 147.887 96.7139C147.799 96.3659 147.755 96.0032 147.755 95.6258C147.755 95.2435 147.799 94.8808 147.887 94.5377C147.98 94.1946 148.109 93.8735 148.275 93.5745C148.441 93.2756 148.643 93.0084 148.882 92.7732C149.121 92.533 149.389 92.3271 149.687 92.1556C149.984 91.984 150.306 91.8542 150.653 91.7659C151.004 91.6728 151.372 91.6263 151.757 91.6263C152.147 91.6263 152.518 91.6704 152.869 91.7586C153.221 91.8468 153.545 91.9791 153.842 92.1556C154.145 92.3271 154.418 92.5428 154.662 92.8026C154.906 93.0623 155.115 93.3662 155.291 93.7142L154.552 94.0451C154.415 93.7657 154.252 93.5231 154.062 93.3172C153.876 93.1065 153.664 92.93 153.425 92.7879C153.191 92.6408 152.933 92.533 152.65 92.4644C152.372 92.3909 152.074 92.3541 151.757 92.3541C151.45 92.3541 151.16 92.3909 150.887 92.4644C150.614 92.5379 150.36 92.6457 150.126 92.7879C149.892 92.9251 149.682 93.0918 149.497 93.2878C149.311 93.479 149.153 93.6971 149.021 93.9422C148.889 94.1872 148.787 94.4519 148.714 94.7362C148.646 95.0156 148.611 95.3121 148.611 95.6258C148.611 95.9346 148.646 96.2311 148.714 96.5154C148.787 96.7997 148.889 97.0619 149.021 97.3021C149.153 97.5422 149.311 97.7628 149.497 97.9637C149.682 98.1598 149.892 98.3265 150.126 98.4637C150.36 98.6009 150.614 98.7088 150.887 98.7872C151.16 98.8607 151.45 98.8975 151.757 98.8975C152.074 98.8975 152.372 98.8607 152.65 98.7872C152.933 98.7137 153.191 98.6058 153.425 98.4637C153.664 98.3216 153.876 98.1451 154.062 97.9343C154.252 97.7236 154.415 97.481 154.552 97.2065L155.291 97.53C155.115 97.878 154.906 98.1843 154.662 98.449C154.418 98.7088 154.145 98.9269 153.842 99.1033C153.545 99.2749 153.221 99.4048 152.869 99.493C152.518 99.5812 152.147 99.6253 151.757 99.6253Z" fill="white"/>
        <path d="M160.403 99.6253C160.013 99.6253 159.642 99.5788 159.291 99.4856C158.94 99.3925 158.613 99.2626 158.31 99.096C158.013 98.9244 157.745 98.721 157.506 98.4857C157.267 98.2456 157.062 97.976 156.891 97.677C156.725 97.378 156.596 97.057 156.503 96.7139C156.416 96.3708 156.372 96.0081 156.372 95.6258C156.372 95.2435 156.416 94.8808 156.503 94.5377C156.596 94.1897 156.725 93.8686 156.891 93.5745C157.062 93.2756 157.267 93.006 157.506 92.7658C157.745 92.5257 158.013 92.3222 158.31 92.1556C158.613 91.984 158.94 91.8542 159.291 91.7659C159.642 91.6728 160.013 91.6263 160.403 91.6263C160.793 91.6263 161.164 91.6728 161.515 91.7659C161.866 91.8542 162.19 91.984 162.488 92.1556C162.79 92.3222 163.061 92.5257 163.3 92.7658C163.544 93.006 163.749 93.2756 163.915 93.5745C164.08 93.8686 164.21 94.1897 164.302 94.5377C164.395 94.8808 164.441 95.2435 164.441 95.6258C164.441 96.0081 164.395 96.3708 164.302 96.7139C164.21 97.057 164.08 97.378 163.915 97.677C163.749 97.976 163.544 98.2456 163.3 98.4857C163.061 98.721 162.79 98.9244 162.488 99.096C162.19 99.2626 161.866 99.3925 161.515 99.4856C161.169 99.5788 160.798 99.6253 160.403 99.6253ZM160.403 98.8975C160.715 98.8975 161.01 98.8607 161.288 98.7872C161.566 98.7088 161.822 98.6009 162.056 98.4637C162.295 98.3265 162.507 98.1598 162.693 97.9637C162.883 97.7628 163.041 97.5422 163.168 97.3021C163.3 97.0619 163.4 96.7997 163.468 96.5154C163.541 96.2311 163.578 95.9346 163.578 95.6258C163.578 95.3121 163.541 95.0156 163.468 94.7362C163.4 94.4519 163.3 94.1872 163.168 93.9422C163.041 93.6971 162.883 93.4765 162.693 93.2805C162.507 93.0844 162.295 92.9178 162.056 92.7805C161.822 92.6433 161.566 92.5379 161.288 92.4644C161.01 92.3909 160.715 92.3541 160.403 92.3541C160.091 92.3541 159.796 92.3909 159.518 92.4644C159.24 92.5379 158.981 92.6457 158.742 92.7879C158.508 92.9251 158.296 93.0918 158.106 93.2878C157.92 93.479 157.762 93.6971 157.63 93.9422C157.503 94.1872 157.403 94.4519 157.33 94.7362C157.262 95.0156 157.228 95.3121 157.228 95.6258C157.228 95.9346 157.262 96.2311 157.33 96.5154C157.403 96.7997 157.503 97.0619 157.63 97.3021C157.762 97.5422 157.92 97.7628 158.106 97.9637C158.296 98.1598 158.508 98.3265 158.742 98.4637C158.981 98.6009 159.24 98.7088 159.518 98.7872C159.796 98.8607 160.091 98.8975 160.403 98.8975Z" fill="white"/>
        <path d="M169.223 99.6253C168.779 99.6253 168.369 99.5542 167.994 99.4121C167.618 99.2651 167.296 99.0519 167.028 98.7725C166.76 98.4882 166.55 98.1378 166.399 97.7211C166.253 97.3045 166.179 96.8266 166.179 96.2875V91.7806H166.999V96.1184C166.999 96.5644 167.057 96.9614 167.174 97.3094C167.291 97.6525 167.457 97.9417 167.672 98.177C167.886 98.4122 168.145 98.5936 168.447 98.721C168.755 98.8436 169.096 98.9048 169.472 98.9048C169.847 98.9048 170.186 98.8436 170.488 98.721C170.796 98.5936 171.057 98.4122 171.271 98.177C171.486 97.9417 171.652 97.6525 171.769 97.3094C171.886 96.9614 171.944 96.5644 171.944 96.1184V91.7806H172.756V99.4415H171.944V98.1549C171.813 98.3951 171.659 98.6058 171.483 98.7872C171.313 98.9685 171.115 99.1229 170.891 99.2504C170.667 99.3729 170.415 99.466 170.137 99.5297C169.864 99.5935 169.559 99.6253 169.223 99.6253Z" fill="white"/>
        <path d="M175.27 99.4415V91.7806H176.089V93.0967C176.216 92.8565 176.367 92.6457 176.543 92.4644C176.718 92.283 176.916 92.1311 177.136 92.0086C177.36 91.8811 177.611 91.7855 177.889 91.7218C178.172 91.6581 178.479 91.6263 178.811 91.6263C179.255 91.6263 179.662 91.6998 180.033 91.8468C180.408 91.989 180.73 92.2022 180.998 92.4864C181.267 92.7658 181.474 93.1138 181.62 93.5304C181.771 93.9471 181.847 94.4249 181.847 94.9641V99.4415H181.035V95.1332C181.035 94.6872 180.976 94.2926 180.859 93.9495C180.742 93.6015 180.576 93.3099 180.362 93.0746C180.147 92.8393 179.886 92.6604 179.579 92.5379C179.277 92.4105 178.938 92.3467 178.562 92.3467C178.187 92.3467 177.845 92.4105 177.538 92.5379C177.235 92.6604 176.977 92.8393 176.762 93.0746C176.548 93.3099 176.382 93.6015 176.265 93.9495C176.148 94.2926 176.089 94.6872 176.089 95.1332V99.4415H175.27Z" fill="white"/>
        <path d="M187.02 99.5371C186.708 99.5371 186.413 99.5028 186.135 99.4342C185.862 99.3655 185.625 99.243 185.425 99.0666C185.225 98.8901 185.067 98.6524 184.95 98.3534C184.833 98.0544 184.774 97.6721 184.774 97.2065V92.5011H182.916V91.7806H184.774V89.2148H185.586V91.7806H188.344V92.5011H185.586V97.133C185.586 97.4761 185.628 97.7579 185.711 97.9785C185.794 98.1941 185.906 98.3657 186.047 98.4931C186.189 98.6156 186.355 98.7014 186.545 98.7504C186.74 98.7945 186.95 98.8166 187.174 98.8166C187.276 98.8166 187.374 98.8166 187.467 98.8166C187.559 98.8117 187.649 98.8043 187.737 98.7945C187.825 98.7798 187.91 98.7651 187.993 98.7504C188.081 98.7357 188.166 98.721 188.249 98.7063V99.4121C188.142 99.4317 188.037 99.4489 187.935 99.4636C187.832 99.4832 187.73 99.4979 187.628 99.5077C187.525 99.5175 187.423 99.5248 187.32 99.5297C187.223 99.5347 187.123 99.5371 187.02 99.5371Z" fill="white"/>
        <path d="M190.283 89.3324C190.2 89.3324 190.122 89.3201 190.049 89.2956C189.976 89.2662 189.912 89.227 189.859 89.178C189.81 89.1241 189.768 89.0628 189.734 88.9942C189.705 88.9207 189.69 88.8398 189.69 88.7516C189.69 88.6634 189.705 88.5825 189.734 88.509C189.768 88.4354 189.81 88.3742 189.859 88.3252C189.912 88.2761 189.976 88.2369 190.049 88.2075C190.122 88.1781 190.2 88.1634 190.283 88.1634C190.371 88.1634 190.449 88.1781 190.517 88.2075C190.59 88.2369 190.654 88.2761 190.707 88.3252C190.761 88.3742 190.802 88.4354 190.832 88.509C190.861 88.5825 190.876 88.6634 190.876 88.7516C190.876 88.8398 190.861 88.9207 190.832 88.9942C190.802 89.0628 190.761 89.1241 190.707 89.178C190.654 89.227 190.59 89.2662 190.517 89.2956C190.449 89.3201 190.371 89.3324 190.283 89.3324ZM189.873 99.4415V91.7806H190.693V99.4415H189.873Z" fill="white"/>
        <path d="M193.203 99.4415V91.7806H194.022V93.0967C194.149 92.8565 194.3 92.6457 194.476 92.4644C194.651 92.283 194.849 92.1311 195.068 92.0086C195.293 91.8811 195.544 91.7855 195.822 91.7218C196.105 91.6581 196.412 91.6263 196.744 91.6263C197.187 91.6263 197.595 91.6998 197.965 91.8468C198.341 91.989 198.663 92.2022 198.931 92.4864C199.199 92.7658 199.407 93.1138 199.553 93.5304C199.704 93.9471 199.78 94.4249 199.78 94.9641V99.4415H198.968V95.1332C198.968 94.6872 198.909 94.2926 198.792 93.9495C198.675 93.6015 198.509 93.3099 198.295 93.0746C198.08 92.8393 197.819 92.6604 197.512 92.5379C197.209 92.4105 196.87 92.3467 196.495 92.3467C196.119 92.3467 195.778 92.4105 195.471 92.5379C195.168 92.6604 194.91 92.8393 194.695 93.0746C194.481 93.3099 194.315 93.6015 194.198 93.9495C194.081 94.2926 194.022 94.6872 194.022 95.1332V99.4415H193.203Z" fill="white"/>
        <path d="M205.417 99.3974C205.07 99.3974 204.734 99.3558 204.407 99.2724C204.08 99.1891 203.773 99.0715 203.485 98.9195C203.202 98.7627 202.942 98.5715 202.703 98.3461C202.468 98.1206 202.266 97.8633 202.095 97.5741C201.929 97.2849 201.798 96.9688 201.7 96.6257C201.608 96.2777 201.561 95.9076 201.561 95.5155C201.561 95.1185 201.608 94.7484 201.7 94.4053C201.798 94.0622 201.929 93.7461 202.095 93.4569C202.266 93.1677 202.468 92.9104 202.703 92.6849C202.942 92.4595 203.202 92.2683 203.485 92.1115C203.773 91.9546 204.08 91.8346 204.407 91.7512C204.734 91.6679 205.07 91.6263 205.417 91.6263C205.666 91.6263 205.904 91.6483 206.134 91.6924C206.363 91.7316 206.58 91.788 206.785 91.8615C206.99 91.935 207.182 92.0257 207.363 92.1335C207.548 92.2414 207.716 92.3615 207.868 92.4938C208.019 92.6212 208.153 92.7634 208.27 92.9202C208.392 93.0771 208.497 93.2412 208.585 93.4128V91.7806H209.397V98.7872C209.397 99.1989 209.353 99.5763 209.265 99.9194C209.182 100.267 209.06 100.579 208.899 100.853C208.743 101.128 208.55 101.368 208.321 101.574C208.097 101.779 207.843 101.951 207.56 102.088C207.277 102.226 206.97 102.328 206.639 102.397C206.307 102.466 205.958 102.5 205.592 102.5C205.163 102.5 204.763 102.458 204.393 102.375C204.027 102.292 203.685 102.172 203.368 102.015C203.056 101.863 202.771 101.674 202.512 101.449C202.259 101.228 202.032 100.978 201.832 100.699L202.425 100.169C202.61 100.419 202.81 100.642 203.024 100.838C203.244 101.039 203.48 101.208 203.734 101.346C203.993 101.483 204.271 101.588 204.568 101.662C204.871 101.735 205.202 101.772 205.563 101.772C205.836 101.772 206.1 101.748 206.353 101.699C206.612 101.65 206.851 101.571 207.07 101.463C207.295 101.36 207.499 101.231 207.685 101.074C207.87 100.917 208.029 100.728 208.16 100.508C208.297 100.292 208.402 100.044 208.475 99.765C208.548 99.4905 208.585 99.1817 208.585 98.8386V97.6182C208.453 97.8731 208.285 98.1108 208.08 98.3314C207.875 98.547 207.636 98.7333 207.363 98.8901C207.095 99.047 206.795 99.1719 206.463 99.2651C206.136 99.3533 205.787 99.3974 205.417 99.3974ZM205.534 98.6843C205.802 98.6843 206.065 98.6524 206.324 98.5887C206.582 98.525 206.826 98.4318 207.056 98.3093C207.285 98.1868 207.497 98.0348 207.692 97.8535C207.887 97.6721 208.055 97.4638 208.197 97.2285C208.338 96.9933 208.448 96.7335 208.526 96.4492C208.604 96.16 208.643 95.8488 208.643 95.5155C208.643 95.1773 208.604 94.8661 208.526 94.5818C208.448 94.2926 208.338 94.0304 208.197 93.7951C208.055 93.5599 207.887 93.3515 207.692 93.1702C207.497 92.9888 207.285 92.8369 207.056 92.7144C206.826 92.5918 206.582 92.4987 206.324 92.435C206.065 92.3713 205.802 92.3394 205.534 92.3394C205.266 92.3394 205.002 92.3713 204.744 92.435C204.485 92.4987 204.241 92.5918 204.012 92.7144C203.783 92.8369 203.571 92.9888 203.376 93.1702C203.181 93.3515 203.012 93.5599 202.871 93.7951C202.734 94.0304 202.627 94.2926 202.549 94.5818C202.471 94.8661 202.432 95.1773 202.432 95.5155C202.432 95.8488 202.471 96.16 202.549 96.4492C202.627 96.7335 202.734 96.9933 202.871 97.2285C203.012 97.4638 203.181 97.6721 203.376 97.8535C203.571 98.0348 203.783 98.1868 204.012 98.3093C204.241 98.4318 204.485 98.525 204.744 98.5887C205.002 98.6524 205.266 98.6843 205.534 98.6843Z" fill="white"/>
    </g>
    <defs>
        <clipPath id="clip0_166_1128">
            <rect width="237" height="102" fill="white" transform="translate(0 0.5)"/>
        </clipPath>
    </defs>
</svg>